<svg xmlns="http://www.w3.org/2000/svg" width="15" height="16.667" viewBox="0 0 15 16.667"><defs><style>.a{fill:#0d1c2e;}</style></defs><g transform="translate(-3 -2)"><path class="a" d="M7.167,12.833a.833.833,0,1,1-.833.833A.836.836,0,0,1,7.167,12.833Zm6.667,0a.833.833,0,0,1,0,1.667H10.5a.833.833,0,1,1,0-1.667h3.333ZM15.5,17H5.5a.835.835,0,0,1-.833-.833v-5H16.333v5A.835.835,0,0,1,15.5,17M5.5,5.333h.833v.833A.833.833,0,1,0,8,6.167V5.333h5v.833a.833.833,0,1,0,1.667,0V5.333H15.5a.835.835,0,0,1,.833.833V9.5H4.667V6.167A.835.835,0,0,1,5.5,5.333m10-1.667h-.833V2.833a.833.833,0,1,0-1.667,0v.833H8V2.833a.833.833,0,1,0-1.667,0v.833H5.5A2.5,2.5,0,0,0,3,6.167v10a2.5,2.5,0,0,0,2.5,2.5h10a2.5,2.5,0,0,0,2.5-2.5v-10a2.5,2.5,0,0,0-2.5-2.5"/></g></svg>