<svg xmlns="http://www.w3.org/2000/svg" width="14" height="17.5" viewBox="0 0 14 17.5"><defs><style>.a{fill:#0c3058;}</style></defs><path class="a" d="M11,9.875a1.313,1.313,0,1,1,1.313-1.312A1.314,1.314,0,0,1,11,9.875M11,5.5a3.063,3.063,0,1,0,3.063,3.063A3.066,3.066,0,0,0,11,5.5M11,17.44c-1.466-1.386-5.25-5.277-5.25-8.508a5.25,5.25,0,0,1,10.5,0c0,3.231-3.784,7.122-5.25,8.508M11,2A6.974,6.974,0,0,0,4,8.932c0,4.791,6.168,10.132,6.43,10.356a.872.872,0,0,0,1.139,0C11.832,19.063,18,13.722,18,8.932A6.974,6.974,0,0,0,11,2" transform="translate(-4 -2)"/></svg>